<svg width="569" height="122" viewBox="0 0 569 122" fill="none" xmlns="http://www.w3.org/2000/svg">
<path d="M7.64648 70.7536V0.961626H35.0065C42.6225 0.961626 48.6385 3.00963 53.0545 7.10563C57.5345 11.2016 59.7745 16.5456 59.7745 23.1376C59.7745 30.1776 57.4385 35.7456 52.7665 39.8416C48.1585 43.9376 41.9825 45.9856 34.2385 45.9856H21.1825V70.7536H7.64648ZM32.5105 8.83363H21.1825V38.1136H32.7025C36.9905 38.1136 40.3185 36.7376 42.6865 33.9856C45.0545 31.2336 46.2385 27.6176 46.2385 23.1376C46.2385 18.8496 44.9905 15.3936 42.4945 12.7696C40.0625 10.1456 36.7345 8.83363 32.5105 8.83363Z" fill="white"/>
<path d="M63.2192 70.7536L88.3712 0.961626H104.979L130.035 70.7536H115.155L108.723 52.3216H78.6752L71.9552 70.7536H63.2192ZM81.4592 44.5456H106.035L93.9392 9.88963L81.4592 44.5456Z" fill="white"/>
<path d="M144.701 70.7536V0.961626H173.309C180.413 0.961626 186.269 2.84963 190.877 6.62563C195.549 10.4016 197.885 15.5856 197.885 22.1776C197.885 26.4656 196.765 30.2416 194.525 33.5056C192.349 36.7696 189.437 39.2976 185.789 41.0896L200.765 70.7536H185.405L172.733 44.4496C172.221 44.4496 171.389 44.4816 170.237 44.5456C169.085 44.5456 168.221 44.5456 167.645 44.5456H158.237V70.7536H144.701ZM170.525 8.83363H158.237V36.6736H170.141C174.493 36.6736 177.949 35.3936 180.509 32.8336C183.069 30.2736 184.349 26.7216 184.349 22.1776C184.349 17.8896 183.101 14.5936 180.605 12.2896C178.109 9.98563 174.749 8.83363 170.525 8.83363Z" fill="white"/>
<path d="M211.43 70.7536L236.582 0.961626H253.19L278.246 70.7536H263.366L256.934 52.3216L254.246 44.5456H229.67L226.886 52.3216L220.166 70.7536H211.43ZM229.67 44.5456H254.246L242.15 9.88963L229.67 44.5456Z" fill="white"/>
<path d="M289.913 70.7536V0.961626H316.409C327.417 0.961626 335.801 4.00163 341.561 10.0816C347.385 16.1616 350.297 24.7376 350.297 35.8096C350.297 46.8816 347.385 55.4896 341.561 61.6336C335.801 67.7136 327.449 70.7536 316.505 70.7536H289.913ZM314.105 9.12163H303.449V62.5936H314.201C321.689 62.5936 327.193 60.2256 330.713 55.4896C334.297 50.6896 336.089 44.1296 336.089 35.8096C336.089 27.4896 334.297 20.9616 330.713 16.2256C327.129 11.4896 321.593 9.12163 314.105 9.12163Z" fill="white"/>
<path d="M368.858 70.7536V0.961626H382.394V70.7536H368.858Z" fill="white"/>
<path d="M463.751 62.0176C461.639 64.3856 458.151 66.6256 453.287 68.7376C448.423 70.7856 442.759 71.8096 436.295 71.8096C425.095 71.8096 416.391 68.5456 410.183 62.0176C404.039 55.4896 400.967 46.6256 400.967 35.4256C400.967 24.8016 403.879 16.2576 409.703 9.79363C415.591 3.32963 423.783 0.0656262 434.279 0.00162708C442.087 -0.0623721 448.679 1.76163 454.055 5.47363C459.495 9.18563 462.215 14.3056 462.215 20.8336V21.6016H448.007C448.007 17.5056 446.663 14.2416 443.975 11.8096C441.351 9.31363 437.831 8.06563 433.415 8.06563C427.399 8.06563 422.855 10.6896 419.783 15.9376C416.775 21.1216 415.239 27.2976 415.175 34.4656C415.111 40.0976 415.751 45.0256 417.095 49.2496C418.503 53.4096 420.871 56.8336 424.199 59.5216C427.591 62.2096 431.879 63.5856 437.063 63.6496C442.119 63.7776 446.535 62.5616 450.311 60.0016V42.9136H435.527V34.9456H463.751V62.0176Z" fill="white"/>
<path d="M501.536 0.961626L522.849 47.2336L544.065 0.961626H560.961V70.7536H547.424V13.9216L524.096 64.8016H516.704L493.184 13.9216V70.7536H483.776V0.961626H501.536Z" fill="white"/>
<path d="M35.3746 112.568C34.2124 117.417 29.644 121.625 22.3906 121.625C13.0935 121.625 7.80371 114.972 7.80371 106.797C7.80371 98.6622 13.0935 91.9699 22.3906 91.9699C29.5639 91.9699 33.5712 95.7769 35.3345 100.986H31.287C29.7241 97.4199 27.0793 95.4162 22.3906 95.4162C15.538 95.4162 11.8913 100.626 11.8913 106.797C11.8913 112.929 15.4979 118.178 22.3906 118.178C27.1995 118.178 30.165 115.854 31.3271 112.568H35.3746Z" fill="white"/>
<path d="M86.5061 91.8096C95.8032 91.8096 101.373 98.7424 101.373 106.797C101.373 114.852 95.8032 121.785 86.5061 121.785C77.2089 121.785 71.6386 114.852 71.6386 106.797C71.6386 98.7424 77.2089 91.8096 86.5061 91.8096ZM75.7262 106.797C75.7262 112.728 79.5332 118.339 86.5061 118.339C93.4789 118.339 97.2859 112.728 97.2859 106.797C97.2859 100.866 93.4789 95.2559 86.5061 95.2559C79.5332 95.2559 75.7262 100.866 75.7262 106.797Z" fill="white"/>
<path d="M139.54 92.4908H144.63L155.369 110.204C156.451 112.007 157.493 113.85 158.535 115.533C158.535 113.53 158.455 111.646 158.455 109.602V92.4908H162.503V121.104H157.333L146.753 103.752C145.591 101.828 144.549 99.9847 143.507 98.3015C143.548 100.305 143.588 102.389 143.588 104.513V121.104H139.54V92.4908Z" fill="white"/>
<path d="M204.967 112.167C205.127 116.335 207.973 118.379 212.02 118.379C215.346 118.379 218.111 116.856 218.111 113.49C218.111 110.083 215.226 109.442 211.579 108.36C206.851 106.958 202.082 105.515 201.962 100.065C201.841 94.5346 206.49 91.8096 211.699 91.8096C217.43 91.8096 221.237 94.6548 221.718 100.506H217.63C217.109 96.9791 215.306 95.2159 211.659 95.2159C208.574 95.2159 206.009 96.4982 206.009 99.8644C206.009 102.67 208.734 103.792 212.501 104.874C217.27 106.236 222.159 107.318 222.159 113.409C222.159 119.26 217.19 121.785 212.02 121.785C205.769 121.785 201 118.739 200.88 112.167H204.967Z" fill="white"/>
<path d="M282.275 110.724C282.275 116.856 278.909 121.785 271.415 121.785C263.881 121.785 260.475 116.896 260.475 110.724V92.4908H264.563V110.724C264.563 114.892 266.687 118.339 271.415 118.339C276.104 118.339 278.188 114.892 278.188 110.724V92.4908H282.275V110.724Z" fill="white"/>
<path d="M321.77 92.4908H325.858V117.657H339.643V121.104H321.77V92.4908Z" fill="white"/>
<path d="M370.012 95.9372V92.4908H391.492V95.9372H382.796V121.104H378.748V95.9372H370.012Z" fill="white"/>
<path d="M428.816 92.4908H432.903V121.104H428.816V92.4908Z" fill="white"/>
<path d="M472.575 92.4908H477.664L488.404 110.204C489.486 112.007 490.528 113.85 491.57 115.533C491.57 113.53 491.49 111.646 491.49 109.602V92.4908H495.537V121.104H490.368L479.788 103.752C478.626 101.828 477.584 99.9847 476.542 98.3015C476.582 100.305 476.622 102.389 476.622 104.513V121.104H472.575V92.4908Z" fill="white"/>
<path d="M547.94 109.723V106.437H560.804L560.443 121.104H557.558L557.317 116.255C555.915 119.501 552.989 121.785 547.74 121.785C538.483 121.785 533.674 114.612 533.674 106.797C533.674 98.9828 538.803 91.8096 548.18 91.8096C555.434 91.8096 559.321 96.1376 560.603 100.986H556.516C555.554 97.7004 553.15 95.2559 548.18 95.2559C541.288 95.2559 537.761 100.866 537.761 106.797C537.761 112.728 541.167 118.339 547.82 118.339C552.428 118.339 556.836 115.974 556.997 109.642L547.94 109.723Z" fill="white"/>
</svg>
